<svg width="16" height="17" viewBox="0 0 16 17" fill="none" xmlns="http://www.w3.org/2000/svg">
<path d="M14.8889 17H10.8889C10.2751 17 9.77778 16.5122 9.77778 15.9103V11.9872C9.77778 11.5055 9.38 11.1154 8.88889 11.1154H7.11111C6.62 11.1154 6.22222 11.5055 6.22222 11.9872V15.9103C6.22222 16.5122 5.72489 17 5.11111 17H1.11111C0.497333 17 0 16.5122 0 15.9103V7.59028C0 6.58815 0.468445 5.64139 1.27067 5.02154L7.58711 0.139923C7.82933 -0.046641 8.17067 -0.046641 8.41244 0.139923L14.7298 5.02154C15.532 5.64139 16 6.58772 16 7.58941V15.9103C16 16.5122 15.5027 17 14.8889 17Z" fill="#BBBBBB"/>
</svg>
