<svg width="23" height="15" viewBox="0 0 23 15" fill="none" xmlns="http://www.w3.org/2000/svg">
<path d="M11.5 0C10.6104 0 9.75727 0.345702 9.12825 0.961056C8.49922 1.57641 8.14583 2.41101 8.14583 3.28125C8.14583 4.15149 8.49922 4.98609 9.12825 5.60144C9.75727 6.2168 10.6104 6.5625 11.5 6.5625C12.3896 6.5625 13.2427 6.2168 13.8718 5.60144C14.5008 4.98609 14.8542 4.15149 14.8542 3.28125C14.8542 2.41101 14.5008 1.57641 13.8718 0.961056C13.2427 0.345702 12.3896 0 11.5 0ZM4.3125 2.8125C3.67709 2.8125 3.0677 3.05943 2.61839 3.49897C2.16908 3.93851 1.91667 4.53465 1.91667 5.15625C1.91667 5.46404 1.97864 5.76881 2.09904 6.05316C2.21944 6.33752 2.39592 6.59589 2.61839 6.81353C3.0677 7.25307 3.67709 7.5 4.3125 7.5C4.62713 7.5 4.93867 7.43938 5.22935 7.32159C5.52002 7.20381 5.78414 7.03117 6.00661 6.81353C6.22908 6.59589 6.40556 6.33752 6.52596 6.05316C6.64636 5.76881 6.70833 5.46404 6.70833 5.15625C6.70833 4.84846 6.64636 4.54369 6.52596 4.25934C6.40556 3.97498 6.22908 3.71661 6.00661 3.49897C5.78414 3.28133 5.52002 3.10869 5.22935 2.99091C4.93867 2.87312 4.62713 2.8125 4.3125 2.8125ZM18.6875 2.8125C18.0521 2.8125 17.4427 3.05943 16.9934 3.49897C16.5441 3.93851 16.2917 4.53465 16.2917 5.15625C16.2917 5.46404 16.3536 5.76881 16.474 6.05316C16.5944 6.33752 16.7709 6.59589 16.9934 6.81353C17.4427 7.25307 18.0521 7.5 18.6875 7.5C19.0021 7.5 19.3137 7.43938 19.6043 7.32159C19.895 7.20381 20.1591 7.03117 20.3816 6.81353C20.6041 6.59589 20.7806 6.33752 20.901 6.05316C21.0214 5.76881 21.0833 5.46404 21.0833 5.15625C21.0833 4.53465 20.8309 3.93851 20.3816 3.49897C19.9323 3.05943 19.3229 2.8125 18.6875 2.8125ZM11.5 8.4375C9.26133 8.4375 4.79167 9.53719 4.79167 11.7188V14.0625C4.79167 14.58 5.221 15 5.75 15H17.25C17.779 15 18.2083 14.58 18.2083 14.0625V11.7188C18.2083 9.53719 13.7387 8.4375 11.5 8.4375ZM3.736 9.42444C2.22088 9.65319 0 10.6773 0 11.911V14.0625C0 14.58 0.429333 15 0.958333 15H2.875V11.7188C2.875 10.8178 3.20604 10.0619 3.736 9.42444ZM19.264 9.42444C19.794 10.0619 20.125 10.8178 20.125 11.7188V15H22.0417C22.5707 15 23 14.58 23 14.0625V11.911C23 10.6773 20.7791 9.65319 19.264 9.42444Z" fill="#BBBBBB"/>
</svg>
